<svg xmlns="http://www.w3.org/2000/svg" xmlns:xlink="http://www.w3.org/1999/xlink" viewBox="0 0 75 75"><defs><style>.a{fill:url(#a);}.b{fill:url(#b);}</style><linearGradient id="a" x1="-45.35" y1="205.72" x2="-45.35" y2="163.35" gradientTransform="matrix(1.5, 0, 0, -1.5, 124.5, 330.33)" gradientUnits="userSpaceOnUse"><stop offset="0"/><stop offset="1"/></linearGradient><linearGradient id="b" x1="-51" y1="213.39" x2="-51" y2="162.21" xlink:href="#a"/></defs><title>facebook_noir</title><path class="a" d="M63,84V57h8l1.4-12H63V38.31c0-3.14-.2-5.29,4.32-5.29H72V23.3a69.93,69.93,0,0,0-7.7-.43C56,22.87,51,27.94,51,37.24V45H40.5V57H51V84Z" transform="translate(-10.5 -10.5)"/><path class="b" d="M75,85.5H21A10.51,10.51,0,0,1,10.5,75V21A10.51,10.51,0,0,1,21,10.5H75A10.51,10.51,0,0,1,85.5,21V75A10.51,10.51,0,0,1,75,85.5Zm-54-72A7.5,7.5,0,0,0,13.5,21V75A7.5,7.5,0,0,0,21,82.5H75A7.5,7.5,0,0,0,82.5,75V21A7.5,7.5,0,0,0,75,13.5Z" transform="translate(-10.5 -10.5)"/></svg>