<svg xmlns="http://www.w3.org/2000/svg" xmlns:xlink="http://www.w3.org/1999/xlink" viewBox="0 0 75 75"><defs><style>.a{fill:url(#a);}.b{fill:url(#b);}.c{fill:#f24c27;}</style><linearGradient id="a" x1="-51" y1="213.56" x2="-51" y2="162.35" gradientTransform="matrix(1.5, 0, 0, -1.5, 124.5, 330.33)" gradientUnits="userSpaceOnUse"><stop offset="0" stop-color="#f24c27"/><stop offset="1" stop-color="#f16749"/></linearGradient><linearGradient id="b" x1="-51" y1="202.06" x2="-51" y2="174.54" xlink:href="#a"/></defs><title>instagram</title><path class="a" d="M66,85.5H30A19.53,19.53,0,0,1,10.5,66V30A19.53,19.53,0,0,1,30,10.5H66A19.53,19.53,0,0,1,85.5,30V66A19.53,19.53,0,0,1,66,85.5Zm-36-72A16.52,16.52,0,0,0,13.5,30V66A16.52,16.52,0,0,0,30,82.5H66A16.52,16.52,0,0,0,82.5,66V30A16.52,16.52,0,0,0,66,13.5Z" transform="translate(-10.5 -10.5)"/><path class="b" d="M48,67.5A19.5,19.5,0,1,1,67.5,48,19.53,19.53,0,0,1,48,67.5Zm0-33A13.5,13.5,0,1,0,61.5,48,13.52,13.52,0,0,0,48,34.5Z" transform="translate(-10.5 -10.5)"/><circle class="c" cx="58.5" cy="16.5" r="4.5"/></svg>