<svg xmlns="http://www.w3.org/2000/svg" viewBox="0 0 2155.99 1451.77"><defs><style>.a,.b{stroke:#000;stroke-miterlimit:10;}.b{fill:none;stroke-linecap:round;stroke-width:27px;}</style></defs><title>Logo</title><path class="a" d="M296.56,1266.31s62.2,17.74,94.39-28.68c0,0,22.43-29.25,41.73-90.43,0,0,11.78-43.2-19.45-119,0,0-26.26-71.06-101.73-80.35,0,0-75.36-12.81-133.43,24.59,0,0-63.41,39-90.6,116,0,0-33.16,104.49-17.63,169.63,0,0,25.27,99.13,101.87,145.23,0,0,63,44.12,145.7,33.4,0,0,90.73-16.92,152.77-55.66,0,0,73.52-49.69,106.82-127.69,0,0,19.51-47.15,5.45-146,0,0-11.47-61.61-40.44-136.42L518.43,911.9s-17.54-39-28.46-93c0,0-11.06-80.52,14.22-126.51,0,0,33.48-64.08,51.64-42.63,0,0,31.26,29.08.09,77.43,0,0-26.41,47.58-59.57,79.51l-30.77,29.44-51.2,45.35-70.29,69.39s-22.27,26-41,69.49c0,0-26.66,54.59-43.31,127.78,0,0-12,75.92-1.67,134.93,0,0,18,97.53,90.94,163.76,0,0,74.6,72.23,154.32,64.79,0,0,81.73.6,166.07-72.49,0,0,57.07-39.33,89.37-123.44,0,0-38.54,88.62-119.28,132.51,0,0-58.11,45.78-143.82,50.71,0,0-67.82,3.41-119.62-44.64,0,0-31.18-20-76.46-92.16,0,0-25.79-42.54-38.6-108.12,0,0-6.44-65.63,17-147.9,0,0,30.74-92,57.82-132.94,0,0,28.74-33.31,63.26-65.46l85.05-81.57,61-62.3s43.64-53.17,46.9-80.22c0,0,17.92-82.47-45.78-58.1,0,0-34.57,14.71-50.24,64,0,0-21.65,46.8-14.2,122.33l6.86,50.51L502.53,964s13,101.13-.59,184.29c0,0-13.92,106.93-68.27,180,0,0-65,75.42-124,90.73,0,0-65.16,19.72-106.37-48.9,0,0-48.49-57.66-57.08-170,0,0-7.08-51.87,14.59-102.85,0,0,21.39-69.78,58.86-105.2,0,0,38-33,79.11-28.28,0,0,25.51.75,66.88,26,0,0,36.18,28.28,46.24,68.49,0,0,18.84,55.53,2.18,98.72,0,0-24.76,62-52.53,71.38a82.1,82.1,0,0,1-45,6.65S266.87,1238.37,296.56,1266.31Z" transform="translate(-65.2 -60.87)"/><path class="a" d="M362.65,1261.68s233.13-69.16,287.58-179.9c0,0-30,141,70.07,121.46,0,0,36.84-5,62.07-38.42l-1.33-8.16s-68.12,69.73-57,.95L816.83,650s-26.28,78.24-96,86.84l-50.6,253.8s-19.46,158-264.55,244.11L391,1237.63Z" transform="translate(-65.2 -60.87)"/><path class="a" d="M817.74,946l-34.43,182.15s-21.08,80.19,68.63,61.34c0,0,48.48-6.52,75.58-58.39,0,0,4.7,54.35,67,30.21,0,0,39.56-18.33,49.25-40.14l-4.84-8.28s-26.08,49.61-50.35,29.16c0,0-13.68-6.84-10.78-27.55L1019.15,902s7.2-20-9.9-17.92c0,0-50.37-.84-57.16,34.46L924,1092.62s-4.61,61.45-50.15,73.08c0,0-38.2,13.91-32.74-29.54l35.4-201.84s10.41-38.76-11.52-27.81C865,906.51,827.67,921.38,817.74,946Z" transform="translate(-65.2 -60.87)"/><path class="a" d="M1200.42,909.66l3.29-18.33s-20.49-45.32-79.88-30.9c0,0-30.17,7.54-51.29,54.42,0,0-45.34,81.19-40.62,174.09,0,0,4.31,58.43,61.22,51.22,0,0,39.13,2.5,79.36-45.93l2.18-18.67s-43.92,61.07-68.13,37.82c0,0-22.61-16.72-21.86-40.91,0,0,6.06-116.64,55.55-166.06C1140.24,906.41,1165.54,878.73,1200.42,909.66Z" transform="translate(-65.2 -60.87)"/><path class="a" d="M1292.85,1078.23,1291,1067s-49.74,51-52.09,14.27c0,0-3.93-17.67-2.13-51.46,0,0,15.75-155.54,37.53-240,0,0,33.68-161.1,71.16-200.71,0,0,29.57-41.11,79.7-37.44,0,0,46-.54,65.75,43.67,0,0,34.14,85.13-33,118.42,0,0-76,38.93-147.88,47.19L1179.6,782.24s-33.06,2.61-62,.37c0,0-104.9-14.26-175.34-5.54,0,0-77.9,5.75-164.26,36.61,0,0-90.87,28.8-151.46,72.19,0,0-67.31,49.22-73.91,64.33,0,0,75.44-67.44,153.82-96.23,0,0,118.92-53.61,199.31-61.17,0,0,43.73-9.94,168.34-3.09,0,0,92.68,12.07,148.85,5.68,0,0,58.73,5.06,139.27-10.19,0,0,81-16.73,127-59.82,0,0,43.16-43.33,13.32-127.76,0,0-19-52-65.58-59.76,0,0-82.37-13.05-132.66,29.35,0,0-34.07,34.87-50,91.2l-25.83,111L1193.1,950.27l-15,100.14s-23.19,101.47,53.65,72.17C1231.72,1122.58,1259.54,1113.5,1292.85,1078.23Z" transform="translate(-65.2 -60.87)"/><path class="a" d="M1323.2,871.11l-30.81,182.95s-7.21,79.69,60.6,50.63c0,0,26.56-12.55,37.47-26.89L1389,1069s-47.59,50.33-41.57,6.09l38.41-221.87s7.55-26.35-12.39-20.3C1373.47,832.89,1334,834.46,1323.2,871.11Z" transform="translate(-65.2 -60.87)"/><path class="a" d="M1415.08,848.42s15.73,2.31,12.14,27.32l-32.28,182.49s-8.67,40.86,25.33,35.47c0,0,28.44-1,34.12-43.09l17.5-127.75s12-59.17,38.62-75.38c0,0,44.46-26.8,54.45.17,0,0,5.53,4-.56,35L1540,1010.81s-13.2,64.39,36.33,60.07c0,0,49.39,3.37,91-57.85l-4.49-10.43s-45,57.59-58.69,50.75c0,0-16.77,4.14-13.16-25.06l28.89-151.94s17-53.71-24.34-67.88c0,0-34.37-13.92-70,11.43,0,0-22.23,13.4-39,30.1,0,0-1.75-19.24-21.44-20.21C1465.06,829.79,1429.07,827.29,1415.08,848.42Z" transform="translate(-65.2 -60.87)"/><path class="a" d="M1702.36,928.46s84.39-17.28,106.47-57.17c0,0,26-28.67,11.23-76.48,0,0-14.37-36.73-55.38-27.24,0,0-43.61,6.43-73.06,48.22,0,0-28.22,45.08-35.83,88.19,0,0-11.72,56.33,4.36,90.68,0,0,18.88,43,48.41,48.61,0,0,40.26,11.56,79.13-36.65l38.2-52.29-10.06-6S1785.73,1016,1746,1012c0,0-32.38,2.5-40.6-47.79,0,0-9.46-49.38,4.33-80.24,0,0,18.28-50.43,40.19-70.06,0,0,38.39-42.56,53.36-15,0,0,23.25,45-14.86,79.87,0,0-56.22,44.49-90,38.63Z" transform="translate(-65.2 -60.87)"/><path class="a" d="M1825.89,954.33s42.24-74.58,61.32-167l7.24-32.58s11.36-50,.92-75.5c0,0-12.23-36.38-42.66-43.27,0,0-37.89-9.85-25.11,29.92,0,0,9,33.43,49.84,95.82l35.35,62.6s68.33,119.3,35.11,138c0,0-28.82,20.06-75.17,1.12,0,0,12.85,53.07,49,52,0,0,61.23,3.22,81.3-40.52,0,0,19.28-35.72.85-84.45,0,0-14.95-40.23-73.29-98.38l-57-62.55s-23.88-35.17-19.41-54.74c0,0,9-24.5,22.06,3.37,0,0,15.66,26.75-.09,101.18,0,0-12.19,96.18-55.65,163.29l-4.66,5.64Z" transform="translate(-65.2 -60.87)"/><path class="a" d="M1977.84,976.81s59.45-94.2,90-213L2079.2,722s17.85-64.21,5.87-98c0,0-13.61-48-52.69-58.81,0,0-48.58-15.14-34.45,37.28,0,0,9.55,43.95,58.77,127.47l42,83.46s81.32,159.11,37,181.31c0,0-38.66,24.25-97.66-3.21,0,0,13.41,69.7,60.35,70.58,0,0,79.28,8,108-47.56,0,0,27.24-45.17,6.34-109.58,0,0-16.91-53.15-89-132.25L2053.68,688s-28.83-47.13-21.81-72.26c0,0,13.22-31.24,28.43,5.75,0,0,18.67,35.69-6.39,131.34,0,0-21.78,124.11-82.36,208.53l-6.39,7Z" transform="translate(-65.2 -60.87)"/><path d="M856.11,1385.43a3,3,0,0,1,3.57,2.55,4.54,4.54,0,0,1-3.72,4.94l-35,5.81a3.18,3.18,0,0,1-3.81-3.33l.68-71.58a4.7,4.7,0,0,1,3.9-4.61,3.13,3.13,0,0,1,3.82,3.33l-.69,68.08Z" transform="translate(-65.2 -60.87)"/><path d="M857.65,1341.46a2.18,2.18,0,0,1-1.45,1,1.71,1.71,0,0,1-2.08-1.28,2,2,0,0,1,.34-1.46c3.2-5.31,5-8.64,4.41-12-.53-3.18-3.35-4-3.91-7.4-.7-4.19,1.42-6.88,5.39-7.54,2.84-.47,4.67.74,5.29,4.49C866.89,1324.76,863.37,1333.74,857.65,1341.46Z" transform="translate(-65.2 -60.87)"/><path d="M881.36,1388.69a3.18,3.18,0,0,1-3.81-3.33l.72-70.65a4.79,4.79,0,0,1,3.9-4.61l36.41-6.06a3,3,0,0,1,3.46,2.57,4.28,4.28,0,0,1-3.54,4.67L886,1316.7l-.22,28.13,25-4.15a3,3,0,0,1,3.46,2.57,4.37,4.37,0,0,1-3.54,4.67l-25,4.15-.35,28.74,33.81-5.62a3,3,0,0,1,3.46,2.57,4.29,4.29,0,0,1-3.54,4.67Z" transform="translate(-65.2 -60.87)"/><path d="M990.3,1295l-.75,72.64a4.79,4.79,0,0,1-3.9,4.61,3,3,0,0,1-3.1-1.11l-39.26-57.36-.69,61.78a4.48,4.48,0,0,1-3.8,4.48,3.06,3.06,0,0,1-3.68-3.23l.72-72.75a4.34,4.34,0,0,1,3.58-4.44,3.23,3.23,0,0,1,3.36,1.3L982.46,1358l.35-61.73a4.57,4.57,0,0,1,3.8-4.48A3.12,3.12,0,0,1,990.3,1295Z" transform="translate(-65.2 -60.87)"/><path d="M1004.64,1297.19a3,3,0,0,1-3.57-2.55,4.42,4.42,0,0,1,3.61-4.92l48.22-8a3,3,0,0,1,3.57,2.55,4.41,4.41,0,0,1-3.61,4.91l-20.2,3.36-.68,68.09a4.79,4.79,0,0,1-3.9,4.61,3.19,3.19,0,0,1-3.82-3.33l.69-68.08Z" transform="translate(-65.2 -60.87)"/><path d="M1075.31,1353.41a4.7,4.7,0,0,1-3.9,4.61,3.24,3.24,0,0,1-3.82-3.33l.69-71.58a4.79,4.79,0,0,1,3.9-4.61l22.58-3.75c11.23-1.87,19.58,4.9,21.3,15.22,2.19,13.16-5.7,26.72-20.34,29.15l20.43,25.4a4.33,4.33,0,0,1,.91,2,3.92,3.92,0,0,1-6.81,3.23l-22.47-29.26-12.14,2Zm.41-38.19,19-3.15c10.09-1.68,15.14-10.57,13.6-19.87-1.17-7-6.45-11.4-13.59-10.21l-18.61,3.09Z" transform="translate(-65.2 -60.87)"/><path d="M1139.66,1322.54l-8.58,22.76c-.55,1.61-1.47,3-3.4,3.37a3.88,3.88,0,0,1-4.5-3.22,4.59,4.59,0,0,1,.3-2.38l28.85-76.15a4.51,4.51,0,0,1,3.53-3.27,3.42,3.42,0,0,1,3.84,2l26.84,67.47a10.92,10.92,0,0,1,.49,1.55,3.83,3.83,0,0,1-3.42,4.65,3.58,3.58,0,0,1-4.07-2l-8.23-20.08Zm16.2-45.6-13.74,38,26.88-4.47Z" transform="translate(-65.2 -60.87)"/><path d="M1206.79,1331.55a4.81,4.81,0,0,1-3.9,4.61,3.18,3.18,0,0,1-3.82-3.33l.77-72.53a4.8,4.8,0,0,1,3.89-4.61,3.18,3.18,0,0,1,3.82,3.33Z" transform="translate(-65.2 -60.87)"/><path d="M1245.63,1249.66c18.38-3.06,30.84,3.15,34.25,23.68,5.17,31.08-8.28,50.46-35.05,54.91l-16,2.66a3.19,3.19,0,0,1-3.82-3.33l.73-70.65a4.77,4.77,0,0,1,3.89-4.61ZM1232.77,1323l12.14-2c20.87-3.47,31.52-18.65,27.12-45.08-2.79-16.79-12.3-21.39-26.48-19l-12.14,2Z" transform="translate(-65.2 -60.87)"/><path d="M1297.8,1319.44a3.19,3.19,0,0,1-3.82-3.33l.73-70.65a4.79,4.79,0,0,1,3.89-4.61l36.42-6.06a3,3,0,0,1,3.46,2.57,4.28,4.28,0,0,1-3.54,4.67l-32.56,5.42-.21,28.13,24.95-4.15a3,3,0,0,1,3.46,2.57,4.36,4.36,0,0,1-3.53,4.67l-25,4.15-.35,28.74,33.8-5.62a3,3,0,0,1,3.46,2.57,4.28,4.28,0,0,1-3.53,4.67Z" transform="translate(-65.2 -60.87)"/><path d="M1381.18,1246a3.5,3.5,0,0,1-2,.91,3.58,3.58,0,0,1-4.1-2.93,3.69,3.69,0,0,1,1.29-3.48l18.36-15.76a4.64,4.64,0,0,1,2.37-1.21,3.19,3.19,0,0,1,3.8,3.21l-.73,72.76a4.69,4.69,0,0,1-3.8,4.48,3.07,3.07,0,0,1-3.69-3.24l.61-65.74Z" transform="translate(-65.2 -60.87)"/><path d="M1417.94,1275.68c-3.58-21.56-1.4-56.08,27.31-60.85,15.08-2.51,23.78,4.21,26.57,21,3.59,21.55,1.4,56.07-27.3,60.85C1429.43,1299.19,1420.73,1292.47,1417.94,1275.68Zm46.54-37.7c-2.18-13.16-8.46-18-19.24-16.16-19.06,3.17-24,27.54-20,51.71,2.19,13.16,8.46,17.94,19.24,16.15C1463.58,1286.51,1468.5,1262.14,1464.48,1238Z" transform="translate(-65.2 -60.87)"/><path d="M1486.23,1264.32c-3.58-21.55-1.4-56.07,27.31-60.85,15.08-2.51,23.78,4.21,26.57,21,3.59,21.55,1.4,56.08-27.3,60.85C1497.72,1287.83,1489,1281.11,1486.23,1264.32Zm46.55-37.7c-2.19-13.16-8.47-17.94-19.25-16.15-19,3.17-24,27.54-20,51.7,2.19,13.16,8.46,17.95,19.24,16.15C1531.87,1275.16,1536.79,1250.79,1532.78,1226.62Z" transform="translate(-65.2 -60.87)"/><path d="M1585.21,1205.43c1.85,11.11-1.54,24.39-16.4,26.86-9.08,1.51-14.77-3.26-16.09-11.2-1.85-11.12,1.54-24.39,16.4-26.86C1578.2,1192.72,1583.89,1197.49,1585.21,1205.43Zm-5.66,1.75c-.9-5.44-4.11-8.64-10.47-7.58-12.48,2.07-11.38,15.65-10.7,19.73.9,5.45,4.11,8.65,10.47,7.59C1581.32,1224.84,1580.23,1211.27,1579.55,1207.18Zm31.77-16.47a3.17,3.17,0,0,1-.26,1.91L1573.59,1273a3,3,0,0,1-2.25,1.89,2.84,2.84,0,0,1-3.3-2.37,3,3,0,0,1,.37-1.93l37.47-80.37a3,3,0,0,1,2.27-1.78A2.65,2.65,0,0,1,1611.32,1190.71Zm15.54,51.39c1.85,11.12-1.53,24.39-16.4,26.86-9.07,1.51-14.76-3.25-16.08-11.19-1.85-11.12,1.54-24.39,16.4-26.87C1619.85,1229.4,1625.54,1234.16,1626.86,1242.1Zm-5.65,1.76c-.9-5.45-4.12-8.64-10.47-7.59-12.48,2.08-11.39,15.65-10.71,19.74.91,5.44,4.12,8.64,10.47,7.58C1623,1261.52,1621.89,1247.94,1621.21,1243.86Z" transform="translate(-65.2 -60.87)"/><path d="M1688.38,1176c18.38-3.06,30.84,3.15,34.25,23.68,5.17,31.09-8.28,50.46-35.05,54.91l-16,2.66a3.18,3.18,0,0,1-3.81-3.32l.72-70.66a4.79,4.79,0,0,1,3.9-4.61Zm-12.86,73.37,12.14-2c20.87-3.47,31.52-18.65,27.13-45.08-2.79-16.79-12.3-21.39-26.48-19l-12.14,2Z" transform="translate(-65.2 -60.87)"/><path d="M1744.38,1242.15a4.81,4.81,0,0,1-3.9,4.61,3.18,3.18,0,0,1-3.82-3.33l.77-72.52a4.81,4.81,0,0,1,3.89-4.62,3.18,3.18,0,0,1,3.82,3.33Z" transform="translate(-65.2 -60.87)"/><path d="M1815.06,1218.5l.21-16.94-18.94,3.15a2.93,2.93,0,0,1-3.46-2.57,4.2,4.2,0,0,1,3.53-4.67l22.92-3.81a2.94,2.94,0,0,1,3.42,3l-.1,20.41a6.81,6.81,0,0,1-1.36,4.43c-4.79,7-13.41,14.7-27.48,17-18.49,3.08-31-4-34.35-24.25-5.34-32.1,8.19-53.12,34.74-57.54,11.23-1.86,20.6,1.94,25.91,8.63a3.73,3.73,0,0,1-2.27,6,3.22,3.22,0,0,1-3.19-1c-5.29-5.88-11.8-7.83-20.31-6.41-21.21,3.52-31.44,21.2-27,48,2.81,16.91,12,21.79,26.54,19.37C1804.43,1229.6,1811.29,1223.91,1815.06,1218.5Z" transform="translate(-65.2 -60.87)"/><path d="M1845.45,1225.34a4.81,4.81,0,0,1-3.89,4.61,3.18,3.18,0,0,1-3.82-3.33l.76-72.52a4.8,4.8,0,0,1,3.9-4.61,3.17,3.17,0,0,1,3.82,3.32Z" transform="translate(-65.2 -60.87)"/><path d="M1861.68,1154.67a3,3,0,0,1-3.57-2.55,4.41,4.41,0,0,1,3.61-4.91l48.21-8a3,3,0,0,1,3.58,2.55,4.44,4.44,0,0,1-3.62,4.92L1889.7,1150l-.69,68.09a4.79,4.79,0,0,1-3.89,4.61,3.19,3.19,0,0,1-3.82-3.33l.69-68.08Z" transform="translate(-65.2 -60.87)"/><path d="M1923.41,1192.21l-8.57,22.76c-.55,1.6-1.48,3-3.41,3.36a3.87,3.87,0,0,1-4.49-3.21,4.64,4.64,0,0,1,.3-2.39l28.84-76.14a4.53,4.53,0,0,1,3.54-3.27,3.42,3.42,0,0,1,3.84,2l26.84,67.47a10.92,10.92,0,0,1,.49,1.55,3.83,3.83,0,0,1-3.43,4.65,3.58,3.58,0,0,1-4.06-2l-8.23-20.09Zm16.2-45.6-13.74,38,26.89-4.47Z" transform="translate(-65.2 -60.87)"/><path d="M2021.82,1191.58a3,3,0,0,1,3.57,2.55,4.54,4.54,0,0,1-3.72,4.94l-35,5.81a3.18,3.18,0,0,1-3.81-3.33l.68-71.58a4.71,4.71,0,0,1,3.9-4.61,3.13,3.13,0,0,1,3.82,3.33l-.69,68.08Z" transform="translate(-65.2 -60.87)"/><path d="M2041.51,1195.77a3.18,3.18,0,0,1-3.81-3.33l.72-70.66a4.79,4.79,0,0,1,3.9-4.61l36.41-6.05a3,3,0,0,1,3.46,2.57,4.28,4.28,0,0,1-3.53,4.67l-32.56,5.41-.22,28.14,25-4.15a3,3,0,0,1,3.45,2.57,4.36,4.36,0,0,1-3.53,4.67l-25,4.15-.35,28.73,33.81-5.62a3,3,0,0,1,3.46,2.57,4.29,4.29,0,0,1-3.54,4.67Z" transform="translate(-65.2 -60.87)"/><polygon points="709.8 1451.13 2078.8 1166.13 2078.8 1258.13 709.8 1451.13"/><path d="M1374,172l-24,78s-13,38,19,78,72,64,72,64,109,73,244,49c0,0,71-7,88-62l24-78-235,17Z" transform="translate(-65.2 -60.87)"/><path d="M1298,83l260,205s5,7,17,7l311-23-42,139s-18,0-20,18c0,0-3,16,8,23,0,0-44,56-31,76s32,11,32,11,23-1,18-81c0,0,18,0,21-20,0,0,3-18-8-22l45-145s8-4,0-10L1645,65s-3-5-16-4L1302,74S1293,75,1298,83Z" transform="translate(-65.2 -60.87)"/><path class="b" d="M127.5,930S341.23,21.15,1311,154" transform="translate(-65.2 -60.87)"/><line class="b" x1="1834.3" y1="417.63" x2="1896.3" y2="494.63"/></svg>