<svg xmlns="http://www.w3.org/2000/svg" viewBox="0 0 332.96 356.64"><defs><style>.a,.b{fill:#037e8c;}.b,.d{stroke:#037e8c;}.b,.c,.d{stroke-miterlimit:10;}.c,.d{fill:none;stroke-width:6px;}.c{stroke:#000;}.d{stroke-linecap:round;}</style></defs><title>miniaturelogobleu</title><path class="a" d="M39.78,79l9.76,16.58s4.54,8.31,16.59,9.11a72.07,72.07,0,0,0,22.6-2.35s30-7.35,47.35-34.66c0,0,10.07-13.47,3.21-25.18l-9.76-16.59L95.1,69.51Z" transform="translate(0 -0.02)"/><path class="a" d="M12.2,78.06l77-12.62a4.94,4.94,0,0,0,3.93-1.85L138.65,5.81l17.5,29.43s-2.86,3.13-.05,6.34c0,0,2.31,3.07,5.28,2.27,0,0,2.74,16.57,8.29,17.49a6,6,0,0,0,7-3.82s3.48-4.16-11.23-16a5.18,5.18,0,0,0-.14-6.84s-2.66-3.39-5.1-2.11L142.12,1.67s.58-2-1.74-1.59L64.28,14.81S62.93,14.54,61,17L11.27,76a1.26,1.26,0,0,0,.93,2.1Z" transform="translate(0 -0.02)"/><path class="b" d="M122.25,238.37s18.09,8.72,30.39-3.78c0,0,8.41-7.76,17.55-25.46,0,0,5.89-12.59.35-37.44,0,0-4.27-23.13-26.87-30,0,0-22.37-7.91-42.12.46,0,0-21.46,8.57-33.85,30.68,0,0-15.68,30.22-14.37,51,0,0,2.48,31.66,23.48,49.82,0,0,16.94,16.83,42.8,17.93,0,0,28.65-.38,49.68-8.95,0,0,25.12-11.31,39.44-33.41,0,0,8.46-13.39,9.39-44.38A264.16,264.16,0,0,0,213,161l-4.12-19.26a150.84,150.84,0,0,1-3.78-30s.88-25.22,11-37.95c0,0,13.64-17.83,18.06-10.31,0,0,8,10.55-4.07,23.7,0,0-10.6,13.15-22.43,21.17l-11,7.38L178.6,126.86l-25.18,17.51a91.39,91.39,0,0,0-16.21,19.09,201.89,201.89,0,0,0-20,36.8s-7.7,22.59-7.66,41.19c0,0,.36,30.79,19.16,54.91,0,0,19,26,43.78,28,0,0,25,4.51,54.64-13.38,0,0,19.54-9,33.87-33,0,0-16.48,25.08-43.5,34.23a86.24,86.24,0,0,1-46.68,7.9s-20.93-2.54-34.24-20c0,0-8.47-7.77-18.51-32.24,0,0-5.64-14.37-6.08-35.12,0,0,1.5-20.42,13-44.34,0,0,14.28-26.54,24.73-37.61,0,0,10.56-8.67,22.82-16.68l30.33-20.45,22-15.83s16.16-14,18.59-22.06c0,0,9.85-24.28-10.93-20.2,0,0-11.36,2.67-18.76,16.93,0,0-9.1,13.17-10.82,36.67L202.38,125l-1.15,31.85s-1.37,31.62-9.94,56.34c0,0-9.92,32-30.41,51.46,0,0-23.88,19.63-42.74,21.19,0,0-21,2.58-29.95-20.59,0,0-11.79-20.21-8.47-55,0,0,.58-16.25,9.91-30.7,0,0,10.24-20.21,23.57-29.07,0,0,13.39-8.09,25.7-4.46,0,0,7.77,1.58,19.08,11.51,0,0,9.58,10.57,10.52,23.4,0,0,2.83,18-4.55,30.32,0,0-10.86,17.64-19.85,19A25.46,25.46,0,0,1,130,229.9S114.64,228.25,122.25,238.37Z" transform="translate(0 -0.02)"/><path class="c" d="M41.28,85.07" transform="translate(0 -0.02)"/><path class="d" d="M172,26.8A163.48,163.48,0,1,1,36.1,91.56" transform="translate(0 -0.02)"/></svg>