<svg xmlns="http://www.w3.org/2000/svg" viewBox="0 0 333 356.71"><defs><style>.a,.b,.c{stroke:#000;stroke-miterlimit:10;}.b,.c{fill:none;stroke-width:6px;}.c{stroke-linecap:round;}</style></defs><title>miniaturelogo</title><path d="M130.78,139.29l9.76,16.58s4.54,8.31,16.59,9.11a72.08,72.08,0,0,0,22.6-2.35s30-7.35,47.35-34.66c0,0,10.07-13.47,3.21-25.18L220.53,86.2,186.1,129.8Z" transform="translate(-91 -60.29)"/><path d="M103.2,138.35l77-12.62a4.94,4.94,0,0,0,3.93-1.85L229.65,66.1l17.5,29.43s-2.86,3.13-.05,6.34c0,0,2.31,3.07,5.28,2.27,0,0,2.74,16.57,8.29,17.49a6,6,0,0,0,7-3.82s3.48-4.16-11.23-16a5.17,5.17,0,0,0-.14-6.84s-2.66-3.39-5.1-2.11l-18.08-30.9s.58-2-1.74-1.59L155.28,75.1s-1.35-.27-3.24,2.15l-49.77,59A1.26,1.26,0,0,0,103.2,138.35Z" transform="translate(-91 -60.29)"/><path class="a" d="M213.25,298.66s18.09,8.72,30.39-3.78c0,0,8.41-7.76,17.55-25.46,0,0,5.89-12.59.35-37.44,0,0-4.27-23.13-26.87-30,0,0-22.37-7.91-42.12.46,0,0-21.46,8.57-33.85,30.68,0,0-15.68,30.22-14.37,51,0,0,2.48,31.66,23.48,49.82,0,0,16.94,16.83,42.8,17.93,0,0,28.65-.38,49.68-8.95,0,0,25.12-11.31,39.44-33.41,0,0,8.46-13.39,9.39-44.38A264.64,264.64,0,0,0,304,221.26L299.88,202a150.46,150.46,0,0,1-3.78-30s.88-25.22,11-37.95c0,0,13.64-17.83,18.06-10.31,0,0,8,10.55-4.07,23.7,0,0-10.6,13.15-22.43,21.17l-11,7.38-18.06,11.16-25.18,17.51a91.45,91.45,0,0,0-16.21,19.09,202.06,202.06,0,0,0-20,36.8s-7.7,22.59-7.66,41.19c0,0,.36,30.79,19.16,54.91,0,0,19,26,43.78,28,0,0,25,4.51,54.64-13.38,0,0,19.54-9,33.87-33,0,0-16.48,25.08-43.5,34.23a86.21,86.21,0,0,1-46.68,7.9s-20.93-2.54-34.24-20c0,0-8.47-7.77-18.51-32.24,0,0-5.64-14.37-6.08-35.12,0,0,1.5-20.42,13-44.34,0,0,14.28-26.54,24.73-37.61,0,0,10.56-8.67,22.82-16.68l30.33-20.45,22-15.83s16.16-14,18.59-22.06c0,0,9.85-24.28-10.93-20.2,0,0-11.36,2.67-18.76,16.93,0,0-9.1,13.17-10.82,36.67l-.57,15.81-1.15,31.85s-1.37,31.62-9.94,56.34c0,0-9.92,32-30.41,51.46,0,0-23.88,19.63-42.74,21.19,0,0-21,2.58-29.95-20.59,0,0-11.79-20.21-8.47-55,0,0,.58-16.25,9.91-30.7,0,0,10.24-20.21,23.57-29.07,0,0,13.39-8.09,25.7-4.46,0,0,7.77,1.58,19.08,11.51,0,0,9.58,10.57,10.52,23.4,0,0,2.83,18-4.55,30.32,0,0-10.86,17.64-19.85,19a25.5,25.5,0,0,1-14.11-.34S205.64,288.54,213.25,298.66Z" transform="translate(-91 -60.29)"/><path class="b" d="M132.28,145.36" transform="translate(-91 -60.29)"/><path class="c" d="M263,87.09A163.48,163.48,0,1,1,127.1,151.85" transform="translate(-91 -60.29)"/></svg>