<svg xmlns="http://www.w3.org/2000/svg" xmlns:xlink="http://www.w3.org/1999/xlink" viewBox="0 0 78 78"><defs><style>.a{fill:url(#a);}.b{fill:url(#b);}</style><linearGradient id="a" x1="-51" y1="203.97" x2="-51" y2="171.91" gradientTransform="matrix(1.5, 0, 0, -1.5, 124.5, 330.33)" gradientUnits="userSpaceOnUse"><stop offset="0" stop-color="#f24c27"/><stop offset="1" stop-color="#f16749"/></linearGradient><linearGradient id="b" x1="-51" y1="214.97" x2="-51" y2="160.84" xlink:href="#a"/></defs><title>twitter</title><path class="a" d="M39.1,67.5c18.11,0,28-15,28-28,0-.42,0-.85,0-1.27A20,20,0,0,0,72,33.11a19.44,19.44,0,0,1-5.66,1.55,9.9,9.9,0,0,0,4.34-5.44,20.17,20.17,0,0,1-6.26,2.39,9.86,9.86,0,0,0-16.78,9A28,28,0,0,1,27.34,30.3a9.87,9.87,0,0,0,3.05,13.15,9.91,9.91,0,0,1-4.46-1.23v.12A9.86,9.86,0,0,0,33.83,52a10.13,10.13,0,0,1-2.6.34,10.27,10.27,0,0,1-1.85-.17A9.88,9.88,0,0,0,38.58,59a19.77,19.77,0,0,1-12.23,4.21A18.31,18.31,0,0,1,24,63.08,27.9,27.9,0,0,0,39.1,67.5" transform="translate(-9 -9)"/><path class="b" d="M48,87A39,39,0,1,1,87,48,39,39,0,0,1,48,87Zm0-75A36,36,0,1,0,84,48,36,36,0,0,0,48,12Z" transform="translate(-9 -9)"/></svg>