<svg xmlns="http://www.w3.org/2000/svg" viewBox="0 0 70 70"><defs><style>.a{fill:#e5e5e5;}.b{fill:#999;}</style></defs><title>user</title><rect class="a" width="70" height="70"/><path class="b" d="M288.12,420.89c.17,5.57,1.39,7,1.39,7,1.92,6.26-8,8.35-8,8.35-16.19,5.4-18.5,9.23-18.5,9.23v10.45h70V445.44c0-2.43-21.19-10.27-21.19-10.27-7.83-3.48-5.23-8.36-5.23-8.36,1-1,1.39-5.87,1.39-5.87,4.18-.81,3.83-7.89,3.83-7.89,0-2.61-2.09-2.78-2.09-2.78V397.73c-.52-6.44-12.07-6.62-12.07-6.62-11.73.18-12.83,8.19-12.83,8.19l-.07,11.05c-2.34-.82-.77,6-.77,6S285,420.26,288.12,420.89Z" transform="translate(-263 -385.89)"/></svg>