<svg xmlns="http://www.w3.org/2000/svg" viewBox="0 0 53 52.98"><defs><style>.a{fill:#e5e5e5;}.b{fill:#999;}</style></defs><title>user_f</title><rect class="a" width="53" height="52.98"/><path class="b" d="M5.22,46.73c2.06-6.33,15.18-9.9,15.18-9.9a2.84,2.84,0,0,0,1.38-2.13.78.78,0,0,0-.7-1.12H14.63a16.33,16.33,0,0,1-4.12-1c-1.06-.45-1.42-1-.76-2,1.93-2.74,5.9-9.19,6-15.85,0,0,.22-10.26,10.34-10.34a10.36,10.36,0,0,1,10,6.41,14.52,14.52,0,0,1,1.15,5.13c.42,6.35,3.66,12.16,5.16,14.64a1.79,1.79,0,0,1-.58,2.47,5,5,0,0,1-3.08.53H32.27a1,1,0,0,0-.79,1.48,3.76,3.76,0,0,0,1.67,1.69s12.73,5.16,14.43,10l2,6.28H2.84Z"/></svg>